<svg xmlns="http://www.w3.org/2000/svg" height="48" width="48">
<path d="M35.909 6.13549C27.6869 -2.06372 14.3748 -2.06372 6.15265 6.13549C-2.06952 14.3347 -2.06952 27.6096 6.15265 35.8088C14.3748 44.008 27.6869 44.008 35.909 35.8088C44.1312 27.6096 44.1312 14.3347 35.909 6.13549ZM33.3921 33.5219C30.0361 36.6454 21.8698 33.6893 15.1019 26.9403C8.33404 20.1913 5.36958 11.769 8.6137 8.53389C11.9138 5.18728 16.3884 3.40242 21.0868 3.40242C25.7852 3.40242 30.2039 5.24306 33.5599 8.53389C40.3837 15.3387 40.4396 26.4383 33.6158 33.2988L33.5039 33.4662C33.448 33.4662 33.448 33.4662 33.3921 33.5219Z" fill="white"></path>
</svg>