<?xml version="1.0" encoding="UTF-8"?>
<!DOCTYPE svg PUBLIC "-//W3C//DTD SVG 1.1//EN" "http://www.w3.org/Graphics/SVG/1.1/DTD/svg11.dtd">
<!-- Creator: CorelDRAW 2018 (64-Bit) -->
<svg xmlns="http://www.w3.org/2000/svg" xml:space="preserve" width="4.83322in" height="4.23976in" version="1.1" style="shape-rendering:geometricPrecision; text-rendering:geometricPrecision; image-rendering:optimizeQuality; fill-rule:evenodd; clip-rule:evenodd"
viewBox="0 0 4288.52 3761.94"
 xmlns:xlink="http://www.w3.org/1999/xlink">
 <defs>
  <style type="text/css">
   <![CDATA[
    .str0 {stroke:#2DED9E;stroke-width:197.18;stroke-linecap:round;stroke-linejoin:round;stroke-miterlimit:2.61313}
    .fil1 {fill:none;fill-rule:nonzero}
    .fil3 {fill:#FEFEFE}
    .fil0 {fill:#FEFEFE;fill-rule:nonzero}
    .fil2 {fill:#3E4095;fill-rule:nonzero}
   ]]>
  </style>
   <clipPath id="id0">
    <rect x="380.85" width="3761.94" height="3761.94"/>
   </clipPath>
   <clipPath id="id1">
    <path d="M604.93 1876.14c-65.64,50.03 -111.7,105.82 -160.06,167.11 2.31,-77.81 1.15,-152.74 -17.27,-230.31l-86.37 -30.88c-100.18,124.97 -177.33,255.21 -242.97,411.31l96.73 34.48c49.51,-121.62 99.03,-219.3 165.82,-323.44 11.51,43.33 18.42,159.45 -2.3,272.93l66.79 23.94c56.42,-99.59 138.18,-186.02 173.88,-211.4 -14.97,123.78 -40.3,231.51 -77.15,355.53l94.42 33.99c48.36,-162.32 72.55,-311.71 73.69,-472.35l-85.21 -30.88zm3547.8 332.06l0 -108.45 -157.76 -398.62 -87.51 34.48 66.79 166.15c-48.36,-10.06 -80.61,-15.32 -134.73,6.46 -70.24,27.53 -132.42,100.55 -76,244.2 56.42,143.65 153.15,154.66 222.24,127.13 66.79,-26.34 84.06,-58.42 102.48,-94.81l23.03 39.98 41.46 -16.52zm-3059.56 -21.78c18.42,-89.78 -61.03,-135.27 -147.39,-152.5 -115.15,-23.22 -209.57,50.03 -231.45,158.73 -24.18,120.18 35.69,210.2 150.84,233.43 55.27,11.25 114,15.8 162.37,12.93l16.12 -76.37c-47.21,-0.48 -97.88,-1.68 -135.88,-9.34 -69.09,-13.89 -114,-50.75 -111.7,-114.44 20.73,24.66 77.15,44.05 112.85,51.23 74.85,15.08 161.21,13.41 184.24,-103.66zm-278.66 -9.58c31.09,-62.01 72.54,-74.46 130.12,-62.97 41.46,8.14 77.15,33.28 70.24,68.71 -6.91,35.2 -58.73,41.66 -118.6,29.45 -27.64,-5.27 -50.67,-15.8 -81.76,-35.19zm500.91 236.3c-66.79,-16.28 -62.18,-57.94 -56.42,-102.23l19.58 -154.18 112.85 14.36 8.06 -65.6 -111.7 -14.36 12.67 -102.23 -77.15 -9.82 -26.48 100.31 -54.12 -6.7 -9.21 65.36 52.97 6.7 -20.73 158.25c-11.52,96.24 16.12,172.38 139.33,188.18 25.33,3.11 47.21,5.03 67.94,4.79l10.36 -75.18c-24.18,-0.24 -46.06,-3.11 -67.94,-7.66zm306.3 -293.52c-52.97,-3.35 -102.48,-0.72 -148.54,6.94l-4.61 76.61c42.61,-5.98 84.06,-9.1 119.76,-6.7 69.09,4.31 125.51,18.92 122.06,101.27 -46.06,-10.77 -94.42,-22.5 -128.97,-24.9 -74.85,-4.79 -141.64,25.85 -147.39,117.07 -6.91,96.96 54.12,122.34 118.6,126.41 65.64,4.31 111.7,-11.01 147.39,-47.64l4.61 52.91 81.76 5.26 12.67 -211.64c9.21,-126.89 -55.27,-187.7 -177.33,-195.6zm-42.6 324.64c-26.49,-1.91 -58.73,-8.86 -55.27,-48.6 2.3,-39.74 29.94,-52.43 79.45,-49.32 24.18,1.67 59.88,7.9 100.18,16.28 -2.3,43.57 -77.15,84.51 -124.36,81.64zm698.97 -249.23c134.73,-118.27 186.55,-234.62 225.7,-338.29l-161.21 1.2c-34.55,90.98 -76,168.07 -158.91,263.83 -82.91,-94.57 -125.51,-170.94 -162.36,-261.44l-161.21 0.96c40.31,103.19 96.73,222.89 231.46,335.17 -133.58,113.96 -188.85,235.82 -225.7,339.49l160.06 -1.2c35.69,-89.54 77.15,-169.5 158.91,-265.03 84.06,95.76 126.67,173.57 162.36,262.87l161.21 -1.19c-41.46,-104.38 -97.88,-224.09 -230.3,-336.37zm400.73 236.54l-31.09 -382.58 -93.27 7.42 38 468.05 310.91 -25.14 -6.91 -85.23 -217.63 17.48zm397.27 -350.98c-52.97,6.46 -101.33,18.67 -145.09,34.95l10.36 76.13c40.3,-13.89 80.6,-24.9 116.3,-29.45 67.94,-8.86 126.66,-5.51 139.33,76.13 -48.36,-1.68 -96.73,-4.31 -131.27,0.24 -74.85,9.58 -134.73,52.43 -123.21,142.93 12.66,96.48 76,109.89 141.63,101.51 64.49,-8.38 107.09,-32.32 135.88,-75.18l13.82 51.23 80.6 -10.29 -26.49 -210.2c-16.12,-126.17 -90.97,-173.57 -211.88,-158.01zm19.58 326.55c-25.33,3.35 -58.73,2.63 -63.33,-36.87 -5.76,-39.5 18.42,-57.46 69.09,-63.68 23.03,-3.11 59.88,-3.83 101.33,-3.35 5.76,43.57 -59.88,97.92 -107.09,103.9zm208.42 -354.33l85.21 382.34 90.97 -20.11 -61.03 -273.41c44.91,-36.87 78.3,-66.08 133.57,-66.32 42.6,-0.48 63.33,34.71 71.39,69.91l50.67 226.72 90.97 -20.35 -49.51 -221.93c-23.03,-105.34 -87.51,-155.85 -176.18,-136.23 -49.51,11.01 -88.67,41.66 -137.03,89.3l-16.12 -48.36 -82.91 18.43zm760 77.57c-27.64,27.77 -52.97,45.49 -77.15,54.82 -65.64,26.1 -103.64,10.77 -137.03,-67.03 -28.78,-79.25 -21.88,-116.83 51.82,-146.04 24.18,-9.58 56.42,-11.01 99.03,-3.35l63.33 161.6z"/>
   </clipPath>
   <clipPath id="id2">
    <path d="M568.4 1883.03c-60.53,54.63 -102.07,113.63 -145.99,178.01 -3.56,-77.72 -10.68,-152.36 -34.42,-228.54l-87.83 -24.62c-91.4,131.84 -159.05,267.27 -212.46,427.84l97.33 27.44c40.35,-124.91 84.27,-225.98 142.43,-334.48 15.43,42.32 29.68,157.75 17.81,272.4l67.65 18.98c49.85,-103.37 124.63,-195.45 159.05,-223.16 -7.12,124.4 -23.74,233.67 -52.22,360.13l97.33 26.93c36.8,-165.18 49.85,-316.01 40.36,-476.06l-89.02 -24.88zm519.87 308.31c16.62,-89.77 -62.9,-134.15 -149.55,-150.31 -116.32,-21.55 -208.9,53.35 -229.07,162.11 -22.55,120.55 37.98,209.82 154.3,231.36 55.78,10.26 113.94,14.11 162.61,10.52l14.25 -76.44c-46.29,0.26 -97.33,-0.51 -135.31,-7.44 -68.84,-12.82 -115.13,-49.25 -113.94,-113.12 21.37,24.62 78.34,43.35 113.94,49.76 74.77,14.11 161.42,11.03 182.78,-106.45zm-278.93 -5.39c29.68,-62.59 71.22,-75.41 129.37,-64.9 41.54,7.7 77.15,32.32 71.22,67.72 -7.12,35.4 -58.16,42.58 -118.69,31.29 -27.3,-4.87 -49.85,-15.13 -81.9,-34.12zm503.26 228.8c-66.47,-14.87 -62.91,-56.43 -58.16,-101.06l16.62 -154.67 112.76 12.06 7.12 -65.66 -112.76 -12.06 10.68 -102.34 -77.15 -8.21 -24.93 101.06 -53.41 -5.9 -7.12 65.66 52.22 5.64 -16.62 158.52c-10.68,96.7 18.99,172.11 143.62,185.19 23.74,2.57 46.29,4.1 67.65,3.34l7.12 -75.41c-23.74,0.51 -45.1,-1.8 -67.65,-6.16zm307.41 -294.72c-52.22,-3.33 -102.07,-0.51 -148.37,7.44l-4.75 76.44c42.73,-5.9 84.27,-9.23 119.88,-6.93 68.84,4.1 125.82,18.47 122.26,101.06 -46.29,-10.77 -93.77,-22.57 -128.19,-24.62 -75.96,-4.61 -142.43,26.16 -148.36,117.48 -5.94,96.96 54.6,122.09 119.88,126.2 65.28,4.1 111.57,-11.54 147.18,-48.22l4.75 52.84 80.71 4.87 13.05 -211.36c8.31,-127.23 -55.78,-187.5 -178.04,-195.2zm-41.54 324.73c-26.11,-1.8 -58.16,-8.72 -55.78,-48.48 2.37,-39.76 29.67,-52.58 79.52,-49.51 23.74,1.54 59.35,7.7 100.89,15.91 -2.38,43.86 -78.34,84.9 -124.63,82.08zm694.35 -252.14c132.93,-120.04 183.97,-237.01 220.77,-341.15l-160.23 3.34c-33.23,91.57 -73.59,169.03 -155.49,265.73 -84.27,-93.37 -127,-169.29 -166.17,-259.32l-160.23 3.34c41.54,102.6 99.7,221.62 235.01,331.91 -132.94,115.94 -185.16,238.55 -221.95,342.69l161.42 -3.33c34.42,-90.03 74.77,-170.57 155.48,-267.28 85.46,94.65 128.19,172.11 164.99,260.6l161.42 -3.08c-42.73,-103.88 -100.89,-222.9 -235.01,-333.45zm404.74 236.49l-28.49 -382.7 -92.58 6.93 35.61 468.11 310.97 -23.6 -5.94 -85.41 -219.58 16.67zm401.18 -348.84c-52.22,6.16 -100.89,17.7 -144.8,33.86l8.31 76.18c41.54,-13.59 81.9,-24.37 117.5,-28.73 68.84,-7.95 127,-4.36 138.87,77.46 -48.66,-2.05 -97.33,-5.13 -131.75,-1.02 -74.78,8.97 -134.13,51.3 -123.44,142.1 11.87,96.44 74.78,110.55 140.06,102.86 65.28,-7.95 108.01,-31.55 136.5,-74.13l14.24 51.04 79.53 -9.49 -24.92 -210.33c-14.24,-126.45 -89.02,-174.42 -210.09,-159.8zm17.81 326.53c-26.11,3.34 -59.35,2.31 -64.1,-37.19 -4.75,-39.76 20.18,-57.2 70.03,-63.1 22.55,-2.82 59.34,-3.33 100.89,-2.56 5.94,43.61 -60.53,97.47 -106.82,102.86zm214.83 -352.17l78.34 383.73 91.4 -18.73 -56.97 -274.2c46.29,-36.17 79.52,-64.64 135.31,-64.13 41.54,0.26 62.9,35.91 70.03,71.05l46.29 227.52 91.39 -18.72 -45.1 -222.64c-22.55,-105.68 -85.46,-157.23 -174.48,-139.02 -48.67,10 -90.21,40.02 -138.87,86.7l-15.43 -48.48 -81.9 16.93zm624.32 -302.93l58.16 168.78c-47.48,-12.06 -79.53,-18.72 -134.12,0.77 -71.22,24.62 -137.69,94.91 -86.65,240.85 51.04,145.95 145.99,161.08 217.21,136.46 67.65,-23.6 86.65,-54.64 105.64,-90.29l21.37 40.78 80.71 -27.7 -174.48 -500.43 -87.83 30.78zm138.87 401.17c-28.48,26.42 -55.78,43.09 -79.53,51.56 -66.47,23.08 -104.45,6.16 -134.12,-73.1 -26.11,-80.28 -16.61,-117.73 58.16,-143.64 24.92,-8.46 56.97,-8.46 98.51,0.77l56.97 164.42z"/>
   </clipPath>
 </defs>
 <g id="Layer_x0020_1">
  <metadata id="CorelCorpID_0Corel-Layer"/>
  <g style="clip-path:url(#id0)">
   <image x="380.85" y="-1.06" width="3763" height="3763" xlink:href="met_X_land_svg_Images\met_X_land_svg_ImgID1.png"/>
  </g>
  <path class="fil0" d="M604.38 1876.2c-64.74,50.08 -110.92,105.79 -159.07,166.98 1.74,-77.85 0.52,-152.63 -17.44,-230.32l-86.18 -30.93c-100.1,125.16 -177.67,255.31 -243.07,411.5l96.13 34.5c49.28,-121.71 99.31,-219.41 165.7,-323.62 11.56,43.39 18.55,159.48 -1.63,273.04l66.29 23.79c56.31,-99.58 137.82,-185.97 174,-211.19 -15.34,123.56 -40.01,231.39 -77.04,355.43l94.47 33.9c48.83,-162.15 72.54,-311.62 74.02,-472.17l-86.18 -30.92zm488.72 310.09c17.97,-89.57 -60.9,-135.12 -147.22,-152.44 -115.68,-23.2 -209.41,50.19 -231.2,158.82 -24.08,120.07 35.07,210.24 150.74,233.43 55.24,11.08 113.56,15.84 162.66,12.8l15.29 -76.23c-46.61,-0.43 -97.54,-1.72 -135.51,-9.33 -69.06,-13.85 -114.64,-50.75 -111.71,-114.59 20.16,24.86 77.32,44.25 112.72,51.35 75.1,15.06 160.74,13.4 184.24,-103.81zm-279.17 -9.4c31.31,-62.11 73.31,-74.51 130.28,-63.08 41.44,8.31 77.71,33.42 70.63,68.68 -7.07,35.26 -58.66,41.77 -119.09,29.64 -26.76,-5.37 -49.78,-15.93 -81.82,-35.24zm501.47 236.18c-66.26,-16.29 -61.85,-57.86 -56.2,-102.2l19.66 -154.26 112.66 14.36 8.36 -65.56 -112.66 -14.36 13.03 -102.19 -76.86 -9.8 -27 100.41 -54.15 -6.9 -8.36 65.56 52.4 6.69 -20.16 158.11c-12.29,96.41 15.29,172.43 139.31,188.24 24.46,3.12 46.41,4.94 67.74,4.72l9.59 -75.2c-23.95,-0.12 -45.78,-2.9 -67.37,-7.61zm306.35 -293.42c-52.71,-3.44 -102.29,-0.82 -148.68,6.87l-4.99 76.62c42.74,-5.98 84.42,-9.11 120.44,-6.77 68.52,4.47 125.81,18.91 122.21,101.46 -46.94,-10.85 -94.69,-22.73 -128.96,-24.96 -75.56,-4.92 -141.96,25.82 -147.9,116.98 -6.31,96.98 53.79,122.32 118.81,126.55 65.89,4.3 111.89,-11.22 147.81,-47.84l4.5 52.89 80.83 5.27 13.76 -211.43c8.28,-127.05 -55.71,-187.7 -177.83,-195.65zm-42.3 324.49c-26.35,-1.72 -58.55,-8.68 -55.96,-48.45 2.59,-39.76 29.89,-52.6 79.97,-49.33 23.72,1.54 59.49,7.77 100.4,16.27 -2.84,43.65 -77.84,84.54 -124.41,81.5zm698.54 -249.13c134.56,-118.3 186.86,-234.6 225.35,-338.25l-160.69 1.15c-34.78,91.04 -75.99,168.16 -158.81,263.73 -82.93,-94.39 -125.23,-170.91 -162.56,-261.44l-160.7 1.15c39.96,103.08 96.5,222.8 231.42,334.98 -134.58,114.1 -189.38,236.01 -226.6,339.65l160.69 -1.15c36.05,-89.65 77.24,-169.56 158.81,-265.13 84.2,95.78 126.51,173.7 162.58,262.84l160.69 -1.15c-41.24,-104.46 -97.76,-224.19 -230.17,-336.38zm400.34 236.62l-30.64 -382.67 -93.03 7.45 37.47 467.93 311.55 -24.95 -6.83 -85.25 -218.53 17.49zm397.38 -351.16c-52.39,6.68 -100.57,18.7 -144.63,35.1l9.71 76.16c40.82,-14.02 81.13,-25.04 116.93,-29.6 68.12,-8.68 127.11,-5.43 139.31,76.29 -48.14,-1.7 -97.28,-4.25 -131.34,0.09 -75.11,9.58 -134.44,52.41 -122.88,143.04 12.3,96.4 76.13,109.82 140.76,101.58 65.5,-8.35 107.7,-32.35 135.97,-75.14l14.5 51.06 80.35 -10.25 -26.8 -210.17c-16.1,-126.29 -90.48,-173.63 -211.88,-158.16zm20.35 326.6c-26.2,3.35 -59.13,2.64 -64.17,-36.89 -5.04,-39.53 19.31,-57.33 69.1,-63.68 23.58,-3 59.88,-3.72 101.66,-3.16 5.53,43.39 -60.3,97.83 -106.59,103.73zm208.3 -354.31l84.75 382.4 91.11 -20.19 -60.56 -273.27c45.04,-36.86 78.23,-66.12 133.19,-66.35 42.29,-0.42 63.6,34.69 71.37,69.8l50.27 226.78 91.11 -20.19 -49.21 -222.03c-23.34,-105.32 -87.72,-155.76 -176.26,-136.14 -48.99,10.86 -89.07,41.64 -137.15,89.13l-16.1 -48.19 -82.52 18.28zm603.55 -317.19l65.92 166.24c-48.49,-10.04 -79.96,-15.34 -134.79,6.4 -69.57,27.59 -132.47,100.63 -75.5,244.28 56.97,143.64 153.19,154.62 222.75,127.03 66.29,-26.28 83.88,-58.35 101.68,-94.69l23.39 39.87 78.57 -31.16 -195.27 -492.37 -86.75 34.4zm156.57 394.8c-27.82,27.76 -53.96,45.45 -77.69,54.86 -65.47,25.96 -103.69,10.8 -136.49,-67.15 -29.54,-79.25 -21.72,-116.86 51.94,-146.07 23.73,-9.41 56.32,-10.83 98.11,-3.36l64.13 161.71z"/>
  <g style="clip-path:url(#id1)">
   <image x="90.2" y="1693.46" width="4062.53" height="844.64" xlink:href="met_X_land_svg_Images\met_X_land_svg_ImgID2.png"/>
  </g>
  <path class="fil1 str0" d="M604.38 1876.2c-64.74,50.08 -110.92,105.79 -159.07,166.98 1.74,-77.85 0.52,-152.63 -17.44,-230.32l-86.18 -30.93c-100.1,125.16 -177.67,255.31 -243.07,411.5l96.13 34.5c49.28,-121.71 99.31,-219.41 165.7,-323.62 11.56,43.39 18.55,159.48 -1.63,273.04l66.29 23.79c56.31,-99.58 137.82,-185.97 174,-211.19 -15.34,123.56 -40.01,231.39 -77.04,355.43l94.47 33.9c48.83,-162.15 72.54,-311.62 74.02,-472.17l-86.18 -30.92zm488.72 310.09c17.97,-89.57 -60.9,-135.12 -147.22,-152.44 -115.68,-23.2 -209.41,50.19 -231.2,158.82 -24.08,120.07 35.07,210.24 150.74,233.43 55.24,11.08 113.56,15.84 162.66,12.8l15.29 -76.23c-46.61,-0.43 -97.54,-1.72 -135.51,-9.33 -69.06,-13.85 -114.64,-50.75 -111.71,-114.59 20.16,24.86 77.32,44.25 112.72,51.35 75.1,15.06 160.74,13.4 184.24,-103.81zm-279.17 -9.4c31.31,-62.11 73.31,-74.51 130.28,-63.08 41.44,8.31 77.71,33.42 70.63,68.68 -7.07,35.26 -58.66,41.77 -119.09,29.64 -26.76,-5.37 -49.78,-15.93 -81.82,-35.24zm501.47 236.18c-66.26,-16.29 -61.85,-57.86 -56.2,-102.2l19.66 -154.26 112.66 14.36 8.36 -65.56 -112.66 -14.36 13.03 -102.19 -76.86 -9.8 -27 100.41 -54.15 -6.9 -8.36 65.56 52.4 6.69 -20.16 158.11c-12.29,96.41 15.29,172.43 139.31,188.24 24.46,3.12 46.41,4.94 67.74,4.72l9.59 -75.2c-23.95,-0.12 -45.78,-2.9 -67.37,-7.61zm306.35 -293.42c-52.71,-3.44 -102.29,-0.82 -148.68,6.87l-4.99 76.62c42.74,-5.98 84.42,-9.11 120.44,-6.77 68.52,4.47 125.81,18.91 122.21,101.46 -46.94,-10.85 -94.69,-22.73 -128.96,-24.96 -75.56,-4.92 -141.96,25.82 -147.9,116.98 -6.31,96.98 53.79,122.32 118.81,126.55 65.89,4.3 111.89,-11.22 147.81,-47.84l4.5 52.89 80.83 5.27 13.76 -211.43c8.28,-127.05 -55.71,-187.7 -177.83,-195.65zm-42.3 324.49c-26.35,-1.72 -58.55,-8.68 -55.96,-48.45 2.59,-39.76 29.89,-52.6 79.97,-49.33 23.72,1.54 59.49,7.77 100.4,16.27 -2.84,43.65 -77.84,84.54 -124.41,81.5zm698.54 -249.13c134.56,-118.3 186.86,-234.6 225.35,-338.25l-160.69 1.15c-34.78,91.04 -75.99,168.16 -158.81,263.73 -82.93,-94.39 -125.23,-170.91 -162.56,-261.44l-160.7 1.15c39.96,103.08 96.5,222.8 231.42,334.98 -134.58,114.1 -189.38,236.01 -226.6,339.65l160.69 -1.15c36.05,-89.65 77.24,-169.56 158.81,-265.13 84.2,95.78 126.51,173.7 162.58,262.84l160.69 -1.15c-41.24,-104.46 -97.76,-224.19 -230.17,-336.38zm400.34 236.62l-30.64 -382.67 -93.03 7.45 37.47 467.93 311.55 -24.95 -6.83 -85.25 -218.53 17.49zm397.38 -351.16c-52.39,6.68 -100.57,18.7 -144.63,35.1l9.71 76.16c40.82,-14.02 81.13,-25.04 116.93,-29.6 68.12,-8.68 127.11,-5.43 139.31,76.29 -48.14,-1.7 -97.28,-4.25 -131.34,0.09 -75.11,9.58 -134.44,52.41 -122.88,143.04 12.3,96.4 76.13,109.82 140.76,101.58 65.5,-8.35 107.7,-32.35 135.97,-75.14l14.5 51.06 80.35 -10.25 -26.8 -210.17c-16.1,-126.29 -90.48,-173.63 -211.88,-158.16zm20.35 326.6c-26.2,3.35 -59.13,2.64 -64.17,-36.89 -5.04,-39.53 19.31,-57.33 69.1,-63.68 23.58,-3 59.88,-3.72 101.66,-3.16 5.53,43.39 -60.3,97.83 -106.59,103.73zm208.3 -354.31l84.75 382.4 91.11 -20.19 -60.56 -273.27c45.04,-36.86 78.23,-66.12 133.19,-66.35 42.29,-0.42 63.6,34.69 71.37,69.8l50.27 226.78 91.11 -20.19 -49.21 -222.03c-23.34,-105.32 -87.72,-155.76 -176.26,-136.14 -48.99,10.86 -89.07,41.64 -137.15,89.13l-16.1 -48.19 -82.52 18.28zm603.55 -317.19l65.92 166.24c-48.49,-10.04 -79.96,-15.34 -134.79,6.4 -69.57,27.59 -132.47,100.63 -75.5,244.28 56.97,143.64 153.19,154.62 222.75,127.03 66.29,-26.28 83.88,-58.35 101.68,-94.69l23.39 39.87 78.57 -31.16 -195.27 -492.37 -86.75 34.4zm156.57 394.8c-27.82,27.76 -53.96,45.45 -77.69,54.86 -65.47,25.96 -103.69,10.8 -136.49,-67.15 -29.54,-79.25 -21.72,-116.86 51.94,-146.07 23.73,-9.41 56.32,-10.83 98.11,-3.36l64.13 161.71z"/>
  <path class="fil2" d="M568.98 1883.14c-61.01,54.57 -103.1,113.42 -146.77,177.9 -3.8,-77.78 -10.36,-152.29 -33.8,-228.49l-88.17 -24.71c-90.93,131.97 -159.03,267.32 -213.13,427.78l98.34 27.56c40.49,-124.91 83.43,-225.93 142.22,-334.61 14.62,42.45 29.86,157.75 17.83,272.46l67.82 19.01c49.07,-103.33 124.22,-195.31 158.52,-223.05 -6.5,124.34 -23.42,233.66 -51.52,360.02l96.65 27.08c37.15,-165.21 50.15,-315.99 40.19,-476.24l-88.17 -24.7zm519.18 308.25c16.67,-89.83 -62.84,-134.24 -149.4,-150.3 -116,-21.54 -208.67,53.2 -228.89,162.13 -22.35,120.4 38.08,209.71 154.08,231.24 55.4,10.28 113.78,14.2 162.83,10.45l14.19 -76.44c-46.61,0.24 -97.55,-0.32 -135.63,-7.39 -69.25,-12.85 -115.36,-49.08 -113.35,-112.97 20.51,24.56 77.96,43.14 113.45,49.73 75.31,13.97 160.91,11.08 182.73,-106.45zm-279.28 -5.38c30.41,-62.56 72.22,-75.55 129.36,-64.95 41.55,7.71 78.17,32.3 71.61,67.65 -6.56,35.36 -58.05,42.6 -118.65,31.36 -26.83,-4.98 -50.01,-15.22 -82.32,-34.07zm504.31 228.75c-66.6,-14.87 -63.08,-56.52 -58.37,-100.98l16.37 -154.63 112.94 11.95 6.96 -65.71 -112.94 -11.96 10.85 -102.45 -77.04 -8.16 -24.86 100.96 -54.28 -5.75 -6.96 65.72 52.53 5.56 -16.78 158.5c-10.24,96.65 18.97,172.07 143.29,185.23 24.52,2.6 46.51,3.94 67.83,3.27l7.98 -75.39c-23.95,0.4 -45.84,-1.92 -67.52,-6.17zm306.88 -294.69c-52.72,-3.28 -102.29,-0.52 -148.65,7.31l-4.77 76.63c42.73,-6.1 84.39,-9.36 120.42,-7.12 68.54,4.27 125.87,18.54 122.5,101.1 -46.97,-10.71 -94.76,-22.45 -129.03,-24.58 -75.57,-4.7 -141.89,26.23 -147.55,117.41 -6.04,97 54.15,122.17 119.17,126.21 65.9,4.1 111.87,-11.54 147.67,-48.27l4.65 52.87 80.84 5.03 13.16 -211.46c7.9,-127.07 -56.27,-187.54 -178.41,-195.13zm-41.35 324.61c-26.36,-1.63 -58.57,-8.51 -56.1,-48.28 2.48,-39.77 29.74,-52.69 79.83,-49.57 23.72,1.48 59.51,7.59 100.44,15.98 -2.71,43.66 -77.6,84.76 -124.17,81.87zm694.26 -251.99c132.97,-120.07 183.73,-237.06 220.84,-341.19l-160.66 3.28c-33.58,91.5 -73.76,169.15 -155.31,265.82 -84.17,-93.29 -127.48,-169.24 -166.02,-259.27l-160.66 3.28c41.32,102.54 99.44,221.5 235.84,331.89 -133.05,115.88 -186.24,238.51 -222.08,342.62l160.66 -3.28c34.86,-90.12 74.98,-170.57 155.28,-267.21 85.46,94.66 128.81,172.01 166.05,260.66l160.66 -3.28c-42.62,-103.91 -100.73,-222.87 -234.6,-333.3zm405.11 236.5l-29.12 -382.79 -93.05 7.08 35.6 468.06 311.65 -23.71 -6.49 -85.28 -218.59 16.63zm400.44 -349.03c-52.45,6.26 -100.72,17.89 -144.91,33.93l9.1 76.23c40.92,-13.69 81.32,-24.38 117.17,-28.66 68.19,-8.14 127.16,-4.41 138.69,77.41 -48.13,-2.09 -97.25,-5.03 -131.34,-0.97 -75.19,8.97 -134.86,51.33 -124.03,142.04 11.51,96.5 75.24,110.43 139.93,102.71 65.56,-7.83 107.96,-31.48 136.57,-74.04l14.09 51.17 80.43 -9.59 -25.1 -210.38c-15.08,-126.42 -89.08,-174.36 -210.59,-159.86zm17.71 326.76c-26.23,3.13 -59.15,2.16 -63.86,-37.41 -4.73,-39.57 19.78,-57.17 69.61,-63.12 23.6,-2.82 59.9,-3.23 101.68,-2.34 5.18,43.43 -61.09,97.34 -107.43,102.87zm214.59 -352.29l78.33 383.76 91.44 -18.66 -55.97 -274.25c45.64,-36.1 79.33,-64.79 134.28,-64.11 42.29,0.3 63.01,35.75 70.19,70.98l46.45 227.59 91.44 -18.66 -45.48 -222.83c-21.57,-105.7 -85.11,-157.21 -173.95,-139.08 -49.18,10.03 -89.75,40.14 -138.63,86.82l-15.29 -48.46 -82.81 16.9zm624.55 -302.94l58.73 168.92c-48.02,-12.12 -79.23,-18.76 -134.95,0.61 -70.68,24.57 -136.67,94.84 -85.92,240.8 50.74,145.96 146.4,161.06 217.09,136.49 67.36,-23.42 86.31,-54.7 105.65,-90.24l21.65 40.83 79.84 -27.75 -173.94 -500.31 -88.15 30.64zm139.47 401.16c-28.99,26.55 -55.86,43.09 -79.98,51.47 -66.52,23.13 -104.05,6.34 -133.49,-72.95 -26.1,-80.44 -16.68,-117.68 58.17,-143.7 24.11,-8.38 56.73,-8.4 98.17,0.86l57.13 164.31z"/>
  <g style="clip-path:url(#id2)">
   <image x="10.54" y="1645.77" width="4187.47" height="904.94" xlink:href="met_X_land_svg_Images\met_X_land_svg_ImgID3.png"/>
  </g>
  <path class="fil3" d="M568.98 1883.14c-61.01,54.57 -103.1,113.42 -146.77,177.9 -3.8,-77.78 -10.36,-152.29 -33.8,-228.49l-88.17 -24.71c-90.93,131.97 -159.03,267.32 -213.13,427.78l98.34 27.56c40.49,-124.91 83.43,-225.93 142.22,-334.61 14.62,42.45 29.86,157.75 17.83,272.46l67.82 19.01c49.07,-103.33 124.22,-195.31 158.52,-223.05 -6.5,124.34 -23.42,233.66 -51.52,360.02l96.65 27.08c37.15,-165.21 50.15,-315.99 40.19,-476.24l-88.17 -24.7zm519.18 308.25c16.67,-89.83 -62.84,-134.24 -149.4,-150.3 -116,-21.54 -208.67,53.2 -228.89,162.13 -22.35,120.4 38.08,209.71 154.08,231.24 55.4,10.28 113.78,14.2 162.83,10.45l14.19 -76.44c-46.61,0.24 -97.55,-0.32 -135.63,-7.39 -69.25,-12.85 -115.36,-49.08 -113.35,-112.97 20.51,24.56 77.96,43.14 113.45,49.73 75.31,13.97 160.91,11.08 182.73,-106.45zm-279.28 -5.38c30.41,-62.56 72.22,-75.55 129.36,-64.95 41.55,7.71 78.17,32.3 71.61,67.65 -6.56,35.36 -58.05,42.6 -118.65,31.36 -26.83,-4.98 -50.01,-15.22 -82.32,-34.07zm504.31 228.75c-66.6,-14.87 -63.08,-56.52 -58.37,-100.98l16.37 -154.63 112.94 11.95 6.96 -65.71 -112.94 -11.96 10.85 -102.45 -77.04 -8.16 -24.86 100.96 -54.28 -5.75 -6.96 65.72 52.53 5.56 -16.78 158.5c-10.24,96.65 18.97,172.07 143.29,185.23 24.52,2.6 46.51,3.94 67.83,3.27l7.98 -75.39c-23.95,0.4 -45.84,-1.92 -67.52,-6.17zm306.88 -294.69c-52.72,-3.28 -102.29,-0.52 -148.65,7.31l-4.77 76.63c42.73,-6.1 84.39,-9.36 120.42,-7.12 68.54,4.27 125.87,18.54 122.5,101.1 -46.97,-10.71 -94.76,-22.45 -129.03,-24.58 -75.57,-4.7 -141.89,26.23 -147.55,117.41 -6.04,97 54.15,122.17 119.17,126.21 65.9,4.1 111.87,-11.54 147.67,-48.27l4.65 52.87 80.84 5.03 13.16 -211.46c7.9,-127.07 -56.27,-187.54 -178.41,-195.13zm-41.35 324.61c-26.36,-1.63 -58.57,-8.51 -56.1,-48.28 2.48,-39.77 29.74,-52.69 79.83,-49.57 23.72,1.48 59.51,7.59 100.44,15.98 -2.71,43.66 -77.6,84.76 -124.17,81.87zm694.26 -251.99c132.97,-120.07 183.73,-237.06 220.84,-341.19l-160.66 3.28c-33.58,91.5 -73.76,169.15 -155.31,265.82 -84.17,-93.29 -127.48,-169.24 -166.02,-259.27l-160.66 3.28c41.32,102.54 99.44,221.5 235.84,331.89 -133.05,115.88 -186.24,238.51 -222.08,342.62l160.66 -3.28c34.86,-90.12 74.98,-170.57 155.28,-267.21 85.46,94.66 128.81,172.01 166.05,260.66l160.66 -3.28c-42.62,-103.91 -100.73,-222.87 -234.6,-333.3zm405.11 236.5l-29.12 -382.79 -93.05 7.08 35.6 468.06 311.65 -23.71 -6.49 -85.28 -218.59 16.63zm400.44 -349.03c-52.45,6.26 -100.72,17.89 -144.91,33.93l9.1 76.23c40.92,-13.69 81.32,-24.38 117.17,-28.66 68.19,-8.14 127.16,-4.41 138.69,77.41 -48.13,-2.09 -97.25,-5.03 -131.34,-0.97 -75.19,8.97 -134.86,51.33 -124.03,142.04 11.51,96.5 75.24,110.43 139.93,102.71 65.56,-7.83 107.96,-31.48 136.57,-74.04l14.09 51.17 80.43 -9.59 -25.1 -210.38c-15.08,-126.42 -89.08,-174.36 -210.59,-159.86zm17.71 326.76c-26.23,3.13 -59.15,2.16 -63.86,-37.41 -4.73,-39.57 19.78,-57.17 69.61,-63.12 23.6,-2.82 59.9,-3.23 101.68,-2.34 5.18,43.43 -61.09,97.34 -107.43,102.87zm214.59 -352.29l78.33 383.76 91.44 -18.66 -55.97 -274.25c45.64,-36.1 79.33,-64.79 134.28,-64.11 42.29,0.3 63.01,35.75 70.19,70.98l46.45 227.59 91.44 -18.66 -45.48 -222.83c-21.57,-105.7 -85.11,-157.21 -173.95,-139.08 -49.18,10.03 -89.75,40.14 -138.63,86.82l-15.29 -48.46 -82.81 16.9zm624.55 -302.94l58.73 168.92c-48.02,-12.12 -79.23,-18.76 -134.95,0.61 -70.68,24.57 -136.67,94.84 -85.92,240.8 50.74,145.96 146.4,161.06 217.09,136.49 67.36,-23.42 86.31,-54.7 105.65,-90.24l21.65 40.83 79.84 -27.75 -173.94 -500.31 -88.15 30.64zm139.47 401.16c-28.99,26.55 -55.86,43.09 -79.98,51.47 -66.52,23.13 -104.05,6.34 -133.49,-72.95 -26.1,-80.44 -16.68,-117.68 58.17,-143.7 24.11,-8.38 56.73,-8.4 98.17,0.86l57.13 164.31z"/>
 </g>
</svg>
