<svg xmlns="http://www.w3.org/2000/svg" height="24" width="24"><path d="M6.55 22.5q-.95 0-1.625-.675T4.25 20.2q0-.95.675-1.625T6.55 17.9q.95 0 1.625.675T8.85 20.2q0 .95-.675 1.625T6.55 22.5Zm10.6 0q-.95 0-1.625-.675T14.85 20.2q0-.95.675-1.625t1.625-.675q.95 0 1.625.675t.675 1.625q0 .95-.675 1.625t-1.625.675ZM4.8 3.3h16.1q.575 0 .863.512.287.513-.013 1.038L17.7 12.1q-.3.575-.85.912-.55.338-1.2.338H7.9l-.8 1.4h12.4v2.65H6.55q-1.325 0-1.962-1.163-.638-1.162-.038-2.287L5.8 11.6 2.2 3.95H.05V1.3h3.8Z"/></svg>